<?xml version="1.0" encoding="utf-8"?>
<!-- Generator: Adobe Illustrator 19.0.0, SVG Export Plug-In . SVG Version: 6.00 Build 0)  -->
<svg version="1.1" id="Layer_1" xmlns="http://www.w3.org/2000/svg" xmlns:xlink="http://www.w3.org/1999/xlink" x="0px" y="0px"
	 viewBox="0 0 256 256" style="enable-background:new 0 0 256 256;" xml:space="preserve">
<style type="text/css">
	.st0{fill:#EAEAEA;}
</style>
<path id="XMLID_14_" class="st0" d="M0,0v256h256V0H0z M215,240H16v-10h199V240z M240,225H16v-10h224V225z M237,170v10H16v-10H237z
	 M16,160v-27h132v27H16z M230,185v10H16v-10H230z M235,200v10H16v-10H235z M240,124H16V16h224V124z"/>
<path id="XMLID_11_" class="st0" d="M23,23v94h14.1l35.2-57.2l25.4,45.4L110,82.5l22.3,34.5h22.7l22.7-40.2l25.1,40.2H233V23H23z
	 M142.9,66c-8.3,0-15-6.7-15-15c0-8.3,6.7-15,15-15c8.3,0,15,6.7,15,15C157.9,59.3,151.2,66,142.9,66z"/>
</svg>
