<?xml version="1.0" encoding="utf-8"?>
<!-- Generator: Adobe Illustrator 19.0.0, SVG Export Plug-In . SVG Version: 6.00 Build 0)  -->
<svg version="1.1" id="Layer_1" xmlns="http://www.w3.org/2000/svg" xmlns:xlink="http://www.w3.org/1999/xlink" x="0px" y="0px"
	 viewBox="0 0 256 256" style="enable-background:new 0 0 256 256;" xml:space="preserve">
<style type="text/css">
	.st0{fill:#EAEAEA;}
</style>
<path id="XMLID_19_" class="st0" d="M0,0v123h123V0H0z M25,42v-7h48v7H25z M67,45v7H25v-7H67z M59,32H25v-7h34V32z M13,15h35v7H13
	V15z M67,92H25v-7h42V92z M85,82H42v-7h43V82z M85,72H42v-7h43V72z M93,62H25v-7h68V62z"/>
<path id="XMLID_11_" class="st0" d="M133,0v256h123V0H133z M239,233h-89v-77h89V233z M239,147h-89v-45h89V147z M239,94h-89V17h89V94
	z"/>
<path id="XMLID_7_" class="st0" d="M0,133v123h123V133H0z M102.1,216.7L63.6,239L25,216.8l0-44.5L63.6,150l38.5,22.2L102.1,216.7z"
	/>
</svg>
