<?xml version="1.0" encoding="utf-8"?>
<!-- Generator: Adobe Illustrator 19.0.0, SVG Export Plug-In . SVG Version: 6.00 Build 0)  -->
<svg version="1.1" id="Layer_1" xmlns="http://www.w3.org/2000/svg" xmlns:xlink="http://www.w3.org/1999/xlink" x="0px" y="0px"
	 viewBox="0 0 256 256" style="enable-background:new 0 0 256 256;" xml:space="preserve">
<style type="text/css">
	.st0{fill:#EAEAEA;}
</style>
<path id="XMLID_8_" class="st0" d="M24,28v126h208V28H24z M225,151H31V35h194V151z"/>
<g id="XMLID_2_">
	<polygon id="XMLID_3_" class="st0" points="185.3,35 128,0.1 70.7,35 	"/>
	<polygon id="XMLID_5_" class="st0" points="225,58.9 225,93 128,151 31,93 31,58.9 0,78 0,256 256,256 256,78 	"/>
</g>
<g id="XMLID_4_">
	<path id="XMLID_9_" class="st0" d="M98.3,80.7l-1.5,12.4c-0.1,0.8-0.2,1.6-0.2,2.4c0,0.3,0.1,0.6,0.2,0.8c0.2,0.2,0.4,0.3,0.6,0.3
		c0.8,0,1.5-0.2,2.1-0.8c0.6-0.5,1.2-1.2,1.7-2c0.5-0.8,0.9-1.8,1.1-2.8c0.3-1.1,0.4-2.2,0.4-3.3c0-1.9-0.4-3.6-1.1-5.2
		c-0.7-1.6-1.7-2.9-3-4c-1.3-1.1-2.8-2-4.5-2.6c-1.7-0.6-3.6-0.9-5.6-0.9c-2.3,0-4.4,0.4-6.4,1.2c-2,0.8-3.6,1.9-5.1,3.2
		s-2.5,3-3.3,4.8c-0.8,1.9-1.2,3.9-1.2,6c0,2.4,0.4,4.5,1.3,6.4s2,3.5,3.5,4.8c1.5,1.3,3.2,2.3,5.2,3c2,0.7,4.1,1,6.3,1
		c1.3,0,2.4,0,3.4-0.1c1-0.1,1.9-0.2,2.8-0.5c0.9-0.2,1.7-0.6,2.6-1s1.7-0.9,2.7-1.5l2.1,4.2c-2,1.3-4.2,2.2-6.4,2.8
		c-2.2,0.6-4.6,0.9-7.2,0.9c-3.3,0-6.2-0.5-8.8-1.6c-2.6-1.1-4.8-2.5-6.7-4.4c-1.8-1.8-3.2-4-4.2-6.4c-1-2.4-1.5-5-1.5-7.8
		c0-2.8,0.5-5.5,1.6-7.9c1.1-2.4,2.5-4.5,4.4-6.3c1.9-1.8,4.1-3.2,6.6-4.2c2.5-1,5.2-1.6,8.2-1.6c2.7,0,5.2,0.5,7.6,1.4
		c2.3,0.9,4.4,2.1,6.1,3.7c1.7,1.6,3.1,3.4,4.1,5.5c1,2.1,1.5,4.4,1.5,6.8c0,2-0.3,3.9-0.8,5.6c-0.5,1.7-1.2,3.1-2.2,4.3
		c-1,1.2-2.1,2.2-3.4,2.8c-1.3,0.7-2.8,1-4.5,1c-0.9,0-1.7-0.2-2.4-0.7c-0.7-0.5-1.3-1.1-1.9-1.9c-1.1,1.1-2.2,1.8-3.2,2.1
		c-1,0.3-1.9,0.4-2.8,0.4c-1.1,0-2.2-0.3-3.3-0.8c-1.2-0.5-2.2-1.2-3.2-2.2c-0.9-0.9-1.7-2.1-2.4-3.4c-0.6-1.3-0.9-2.7-0.9-4.3
		c0-1.5,0.3-2.9,0.9-4.2c0.6-1.3,1.4-2.4,2.4-3.3c1-0.9,2.1-1.6,3.3-2.1s2.5-0.8,3.8-0.8c1.4,0,2.7,0.3,3.8,0.8
		c1.1,0.5,1.9,1.3,2.4,2.2l0.4-2.5H98.3z M82.2,90.6c0,0.7,0.1,1.3,0.4,2c0.3,0.6,0.6,1.2,1.1,1.6c0.5,0.5,1,0.8,1.6,1.1
		c0.6,0.3,1.3,0.4,1.9,0.4c0.7,0,1.3-0.1,1.9-0.4c0.6-0.3,1.1-0.7,1.6-1.1c0.4-0.5,0.8-1,1.1-1.6c0.3-0.6,0.4-1.3,0.4-2
		c0-0.7-0.1-1.3-0.4-1.9c-0.3-0.6-0.6-1.2-1.1-1.7c-0.5-0.5-1-0.9-1.6-1.1c-0.6-0.3-1.3-0.4-1.9-0.4c-0.7,0-1.3,0.1-1.9,0.4
		c-0.6,0.3-1.1,0.7-1.6,1.1c-0.4,0.5-0.8,1-1.1,1.7C82.3,89.3,82.2,90,82.2,90.6z"/>
	<path id="XMLID_12_" class="st0" d="M113.7,63.7h14.5c2.6,0,5,0.5,7.2,1.6c2.2,1,4.2,2.4,5.9,4.1c1.7,1.7,3,3.7,4,6
		c1,2.3,1.5,4.7,1.5,7.2c0,2.5-0.5,4.8-1.4,7.1c-1,2.3-2.3,4.3-4,6c-1.7,1.7-3.7,3.1-5.9,4.2s-4.7,1.5-7.3,1.5h-14.5V63.7z
		 M123.4,93.1h2.2c1.7,0,3.2-0.3,4.5-0.8c1.3-0.5,2.5-1.3,3.4-2.2c0.9-0.9,1.6-2,2.1-3.3c0.5-1.3,0.7-2.7,0.7-4.2
		c0-1.5-0.2-2.9-0.8-4.2c-0.5-1.3-1.2-2.4-2.1-3.4c-0.9-0.9-2-1.7-3.4-2.2c-1.3-0.5-2.8-0.8-4.5-0.8h-2.2V93.1z"/>
	<path id="XMLID_15_" class="st0" d="M162.7,79.2l12-15.6h12.1l-15,17.9l16.4,19.9h-12.7L162.7,85v16.4h-9.8V63.7h9.8V79.2z"/>
</g>
</svg>
