<?xml version="1.0" encoding="utf-8"?>
<!-- Generator: Adobe Illustrator 19.0.0, SVG Export Plug-In . SVG Version: 6.00 Build 0)  -->
<svg version="1.1" id="Capa_1" xmlns="http://www.w3.org/2000/svg" xmlns:xlink="http://www.w3.org/1999/xlink" x="0px" y="0px"
	 viewBox="128 -128 512 512" style="enable-background:new 128 -128 512 512;" xml:space="preserve">
<style type="text/css">
	.st0{fill:#424242;}
</style>
<g>
	<path class="st0" d="M640-128H128v512h512V-128z M576,313.7H192v-228L384-57.7L576,85.7V313.7z M384,172.4l167.7,129.8H216.3
		L384,172.4z M330.9,44.6c-5.7,10.3-8.5,21.5-8.5,33.4c0,10.9,2.5,21,7.4,30.3c5,9.2,12.6,16.3,22.8,21c10.2,4.8,22.3,7.1,36.4,7.1
		c14.5,0,26.8-2.8,36.9-8.4c8.8-4.9,15.4-11.7,19.6-20.4H432c-4.5,5.7-10.4,9.9-17.7,12.8c-7.3,2.8-16.1,4.3-26.2,4.3
		c-10.6,0-19.9-1.7-28.1-5.1c-8.2-3.4-14.5-8.7-19.1-16.2c-4.5-7.3-6.8-15.5-6.8-24.5c0-9.2,2-18.1,6.1-26.7
		c4.1-8.6,10.1-15.2,18.1-19.8c8-4.8,17.8-7.1,29.3-7.1c13.6,0,24.2,3.5,31.8,10.5c7.6,7.1,11.4,15.9,11.4,26.3
		c0,5.9-1.4,11.5-4.1,16.9c-2.7,5.4-6.2,9.8-10.5,13c-3.2,2.5-5.8,3.7-7.9,3.7c-0.7,0-1.3-0.3-1.7-0.8c-0.5-0.5-0.7-1.3-0.7-2.4
		c0-0.8,0.3-2.7,0.9-5.6l9.7-45.8h-16.8l-1.6,7.1c-3.6-5.8-9.2-8.7-16.8-8.7c-10.6,0-19.4,5.1-26.2,15.1c-5.6,8.2-8.4,17.4-8.4,27.4
		c0,8,2.4,14.5,7,19.5c4.6,4.8,10.5,7.3,17.6,7.3c6.5,0,12.4-2.5,17.4-7.3c0.6,2.4,1.8,4.2,3.6,5.5c1.8,1.3,4.5,1.8,8,1.8
		c13.2,0,23.8-5.5,32.3-16.6c6.7-8.8,10.1-18.6,10.1-29.4c0-9.1-2.3-17.5-6.6-25.2c-4.5-7.7-10.8-13.6-19.2-17.8
		c-8.3-4.1-17.9-6.2-28.6-6.2c-12.6,0-23.9,2.6-33.7,7.8C344.3,26.5,336.5,34.3,330.9,44.6z M391.8,80c-1.6,5-3.6,8.8-5.8,11.4
		c-1.6,1.8-3.2,3.1-4.8,4c-2.1,1.2-4.4,1.8-6.8,1.8c-3.2,0-5.9-1.3-8.2-3.8c-2.2-2.6-3.2-6.5-3.2-11.9c0-4.1,0.8-8.7,2.3-14
		c1.6-5.2,3.9-9.2,7-12.1c3.1-2.9,6.5-4.2,10.1-4.2c3.4,0,6.2,1.3,8.5,3.9c2.3,2.6,3.4,6.2,3.4,11.1C394.3,70.4,393.5,75.1,391.8,80
		z M347.2,185.2L205.5,294.8V90.2L347.2,185.2z M420.8,185.2l141.6-95v204.7L420.8,185.2z"/>
</g>
</svg>
