<?xml version="1.0" encoding="utf-8"?>
<!-- Generator: Adobe Illustrator 19.0.0, SVG Export Plug-In . SVG Version: 6.00 Build 0)  -->
<svg version="1.1" id="Capa_1" xmlns="http://www.w3.org/2000/svg" xmlns:xlink="http://www.w3.org/1999/xlink" x="0px" y="0px"
	 viewBox="128 -128 150 150" style="enable-background:new 128 -128 150 150;" xml:space="preserve">
<style type="text/css">
	.st0{fill:#424242;}
</style>
<path class="st0" d="M128-128V22h150v-150H128z M178.4-8.9h-17.6v-61.4h17.6L178.4-8.9L178.4-8.9z M169.7-77.3
	c-5.9,0-10.7-4.5-10.7-9.9c0-5.5,4.8-9.9,10.7-9.9c5.9,0,10.7,4.5,10.7,9.9C180.4-81.7,175.6-77.3,169.7-77.3z M247-8.9h-18v-36.4
	c0-0.1,0.3-5.9-3-9.3c-1.6-1.7-3.9-2.6-6.7-2.6c-7.1,0-10.6,5.1-12.1,8.2v40.2h-17.6v-61.4h17.6v5.2c5.8-4.7,12.2-7.1,18.8-7.1
	c16.7,0,21.1,13,21.1,19.9V-8.9L247-8.9z"/>
</svg>
