<?xml version="1.0" encoding="utf-8"?>
<!-- Generator: Adobe Illustrator 19.0.0, SVG Export Plug-In . SVG Version: 6.00 Build 0)  -->
<svg version="1.1" id="Layer_1" xmlns="http://www.w3.org/2000/svg" xmlns:xlink="http://www.w3.org/1999/xlink" x="0px" y="0px"
	 viewBox="0 0 256 256" style="enable-background:new 0 0 256 256;" xml:space="preserve">
<style type="text/css">
	.st0{fill:#EAEAEA;}
</style>
<path id="XMLID_13_" class="st0" d="M133,0v256h123V0H133z M239,239h-89v-77h89V239z M239,150h-89v-45h89V150z M239,94h-89V17h89V94
	z"/>
<path id="XMLID_7_" class="st0" d="M0,133v123h123V133H0z M102.1,216.7L63.6,239L25,216.8l0-44.5L63.6,150l38.5,22.2L102.1,216.7z"
	/>
<g id="XMLID_1_">
	<path id="XMLID_24_" class="st0" d="M110,13H13v97h97V13z M32,47v-7h48v7H32z M74,50v7H32v-7H74z M66,37H32v-7h34V37z M20,20h35v7
		H20V20z M74,97H32v-7h42V97z M92,87H49v-7h43V87z M92,77H49v-7h43V77z M100,67H32v-7h68V67z"/>
	<path id="XMLID_34_" class="st0" d="M0,0v123h123V0H0z M114,114H9V9h105V114z"/>
</g>
</svg>
