<?xml version="1.0" encoding="utf-8"?>
<!-- Generator: Adobe Illustrator 19.0.0, SVG Export Plug-In . SVG Version: 6.00 Build 0)  -->
<svg version="1.1" id="Layer_1" xmlns="http://www.w3.org/2000/svg" xmlns:xlink="http://www.w3.org/1999/xlink" x="0px" y="0px"
	 viewBox="0 0 256 256" style="enable-background:new 0 0 256 256;" xml:space="preserve">
<style type="text/css">
	.st0{fill:#EAEAEA;}
</style>
<path id="XMLID_20_" class="st0" d="M0,0v256h256V0H0z M174,16h66v31h-66V16z M198.6,61.6c22.1,0,40,17.9,40,40
	c0,22.1-17.9,40-40,40c-22.1,0-40-17.9-40-40C158.6,79.6,176.5,61.6,198.6,61.6z M17,16h142v31H17V16z M17,62h61v12H17V62z M17,142
	h61v12H17V142z M17,202h61v12H17V202z M140,234H17v-12h123V234z M140,194H17v-12h123V194z M140,174H17v-12h123V174z M140,134H17v-12
	h123V134z M140,114H17v-12h123V114z M140,94H17V82h123V94z M239,234h-80v-38h80V234z M240,184h-81v-13h81V184z M240,164h-81v-13h81
	V164z"/>
</svg>
